<svg viewBox="0 0 500 500" class="roots-wrapper">
  <g transform="rotate(0 0 0)">
    <svg viewBoxSize="575" xmlns="http://www.w3.org/2000/svg" viewBox="0 0 120.66999816894531 84.5" height="80.515625" width="115" y="154" x="230" preserveAspectRatio="xMinYMin" zoom="1" data-layer-role="icon" style="position:absolute;height:80.5156px;width:115px;top:208.595px;left:230px">
      <path id="Layer_1-2" dataName="Layer 1" class="cls-1" d="M83.43,20,77.65,30,60.33,0,43,30,37.24,20,0,84.5H120.67Zm0,6,32,55.5h-8.08L79.39,33ZM60.33,6,75.92,33,60.33,60,44.74,33ZM5.2,81.5l32-55.5L58.6,63,47.91,81.5Zm46.18,0L60.33,66l9,15.5Zm21.37,0L62.06,63,77.65,36l26.27,45.5Z" name="Layer 1" zoom="1" data-layer-id="2212875111417" style="fill:rgb(0, 0, 0);fill-opacity:1"/>
    </svg>
  </g>
  <g transform="rotate(0 0 0)">
    <svg viewBoxSize="575" data-root-id="7051413711417" xmlns="http://www.w3.org/2000/svg" y="245.1150012207031" viewBox="3.2200000286102295 8.699999809265137 182.0500030517578 30.68000030517578" x="196.4799984741211" height="30.68000030517578" width="182.0500030517578" fontUrl="http://fonts.gstatic.com/s/poppins/v15/pxiEyp8kv8JHgFVrFJDUc1NECPY.ttf" zoom="1" editorType="buyer" data-layer-role="brandName" style="position:absolute;top:375.115px;width:182.05px;height:30.68px;left:196.48px">
      <g data-horizontal-grow="center" zoom="1" root="[object Object]" style="fill:rgb(0, 0, 0)">
        <path d="M17.53 21.94L17.53 25.16L6.97 25.16L6.97 35.75L19.28 35.75L19.28 38.96L3.22 38.96L3.22 9.11L19.07 9.11L19.07 12.35L6.97 12.35L6.97 21.94L17.53 21.94ZM48.41 38.96L43.10 26.89L37.85 26.89L37.85 38.96L34.08 38.96L34.08 9.11L42.44 9.11Q46.83 9.11 49.09 11.39Q51.34 13.68 51.34 18.09L51.34 18.09Q51.34 20.86 50.12 22.92Q48.90 24.98 46.67 26.02L46.67 26.02L52.45 38.72L52.45 38.96L48.41 38.96ZM37.85 12.35L37.85 23.67L42.40 23.67Q44.76 23.67 46.17 22.15Q47.57 20.63 47.57 18.09L47.57 18.09Q47.57 12.35 42.36 12.35L42.36 12.35L37.85 12.35ZM85.05 24.10L85.05 35.25L84.39 36.07Q81.56 39.38 76.11 39.38L76.11 39.38Q71.27 39.38 68.51 36.17Q65.75 32.96 65.69 27.09L65.69 27.09L65.69 21.23Q65.69 14.95 68.20 11.82Q70.72 8.70 75.72 8.70L75.72 8.70Q79.99 8.70 82.40 11.07Q84.80 13.45 85.05 17.86L85.05 17.86L81.30 17.86Q81.07 15.07 79.75 13.50Q78.43 11.94 75.74 11.94L75.74 11.94Q72.52 11.94 71.02 14.04Q69.53 16.14 69.46 20.75L69.46 20.75L69.46 26.84Q69.46 31.36 71.19 33.77Q72.91 36.18 76.13 36.18L76.13 36.18Q79.17 36.18 80.74 34.70L80.74 34.70L81.30 34.19L81.30 27.30L75.84 27.30L75.84 24.10L85.05 24.10ZM120.60 21.23L120.60 26.66Q120.60 32.77 118.00 36.07Q115.39 39.38 110.60 39.38L110.60 39.38Q105.98 39.38 103.31 36.17Q100.63 32.96 100.53 27.09L100.53 27.09L100.53 21.47Q100.53 15.48 103.17 12.09Q105.82 8.70 110.55 8.70L110.55 8.70Q115.27 8.70 117.91 11.95Q120.54 15.20 120.60 21.23L120.60 21.23ZM116.85 27.03L116.85 21.43Q116.85 16.69 115.30 14.39Q113.75 12.08 110.55 12.08L110.55 12.08Q107.46 12.08 105.87 14.42Q104.28 16.75 104.26 21.31L104.26 21.31L104.26 26.66Q104.26 31.23 105.85 33.63Q107.44 36.03 110.60 36.03Q113.75 36.03 115.27 33.82Q116.79 31.60 116.85 27.03L116.85 27.03ZM140.22 25.29L140.22 22.19L142.54 22.19Q144.77 22.19 145.98 20.82Q147.19 19.44 147.19 17.06L147.19 17.06Q147.19 11.81 143.13 11.81L143.13 11.81Q141.19 11.81 140.08 13.23Q138.97 14.64 138.97 16.94L138.97 16.94L135.36 16.94Q135.36 13.35 137.55 11.02Q139.73 8.70 143.13 8.70L143.13 8.70Q146.66 8.70 148.73 10.90Q150.80 13.10 150.80 17.14L150.80 17.14Q150.80 19.22 149.73 21.01Q148.65 22.80 146.93 23.65L146.93 23.65Q151.15 25.20 151.15 30.64L151.15 30.64Q151.15 34.64 148.93 37.01Q146.70 39.38 143.11 39.38L143.11 39.38Q139.57 39.38 137.38 37.13Q135.20 34.88 135.20 31.09L135.20 31.09L138.83 31.09Q138.83 33.47 139.98 34.87Q141.12 36.28 143.11 36.28L143.11 36.28Q145.14 36.28 146.34 34.90Q147.54 33.53 147.54 30.72L147.54 30.72Q147.54 25.29 142.40 25.29L142.40 25.29L140.22 25.29ZM173.83 38.96L167.14 38.96L167.14 9.11L174.26 9.11Q179.49 9.11 182.38 12.38Q185.27 15.65 185.27 21.57L185.27 21.57L185.27 26.58Q185.27 32.50 182.34 35.73Q179.40 38.96 173.83 38.96L173.83 38.96ZM174.26 12.35L170.89 12.35L170.89 35.75L173.91 35.75Q177.87 35.75 179.69 33.48Q181.52 31.21 181.56 26.76L181.56 26.76L181.56 21.47Q181.56 16.75 179.74 14.55Q177.93 12.35 174.26 12.35L174.26 12.35Z" transform="translate(0, 0)"/>
      </g>
    </svg>
  </g>
</svg>
