<?xml version="1.0" encoding="utf-8"?>
<svg viewBox="23.996 -7.454 181.536 181.536" xmlns="http://www.w3.org/2000/svg">
  <g transform="matrix(1, 0, 0, 1, -172.726059, -240.592636)">
    <svg viewboxsize="500" data-root-id="8704229858285" xmlns="http://www.w3.org/2000/svg" viewBox="0 0 120.66999816894531 84.5" height="80.515625" width="115" y="247.242" x="230" preserveAspectRatio="xMinYMin" zoom="1" editortype="buyer" data-layer-role="icon" style="position:absolute;height:80.5156px;width:115px;top:247.242px;left:230px">
      <path id="Layer_1-2" dataname="Layer 1" class="cls-1" d="M83.43,20,77.65,30,60.33,0,43,30,37.24,20,0,84.5H120.67Zm0,6,32,55.5h-8.08L79.39,33ZM60.33,6,75.92,33,60.33,60,44.74,33ZM5.2,81.5l32-55.5L58.6,63,47.91,81.5Zm46.18,0L60.33,66l9,15.5Zm21.37,0L62.06,63,77.65,36l26.27,45.5Z" name="Layer 1" zoom="1" data-layer-id="4274878958285" style="fill:rgb(35, 31, 32)"/>
    </svg>
  </g>
  <g transform="matrix(1, 0, 0, 1, -172.735992, -238.321869)">
    <svg viewboxsize="575" data-root-id="9839978658286" xmlns="http://www.w3.org/2000/svg" x="223.375" y="342.275" viewBox="4.329999923706055 8.59000015258789 128.25 35.7599983215332" height="35.7599983215332" width="128.25" fonturl="http://fonts.gstatic.com/s/poppins/v15/pxiEyp8kv8JHgFVrFJDUc1NECPY.ttf" zoom="1" editortype="buyer" data-layer-role="brandName" style="position:absolute;top:342.275px;left:223.375px;width:128.25px;height:35.76px">
      <g data-horizontal-grow="left" data-vertical-center="false" zoom="1" root="[object Object]" style="fill:rgb(0, 0, 0)">
        <path d="M7.14 34.35L23.14 34.35L23.14 36.78L4.33 36.78L4.33 10.18L22.57 10.18L22.57 12.62L7.14 12.62L7.14 22.08L20.90 22.08L20.90 24.47L7.14 24.47L7.14 34.35ZM31.77 20.71Q32.72 18.70 34.60 17.67Q36.48 16.64 39.25 16.64L39.25 16.64L39.25 19.27L38.61 19.23Q35.45 19.23 33.67 21.17Q31.88 23.10 31.88 26.60L31.88 26.60L31.88 36.78L29.18 36.78L29.18 16.80L31.77 16.80L31.77 20.71ZM59.85 16.80L62.43 16.80L62.43 34.35Q62.43 39.44 59.94 41.89Q57.46 44.35 52.44 44.35L52.44 44.35Q49.67 44.35 47.18 43.53Q44.69 42.71 43.13 41.27L43.13 41.27L44.50 39.22Q45.94 40.51 48.01 41.23Q50.08 41.95 52.36 41.95L52.36 41.95Q56.16 41.95 57.95 40.19Q59.74 38.42 59.74 34.69L59.74 34.69L59.74 32.15Q58.48 34.05 56.45 35.04Q54.42 36.02 51.95 36.02L51.95 36.02Q49.13 36.02 46.83 34.79Q44.54 33.55 43.22 31.33Q41.91 29.11 41.91 26.30L41.91 26.30Q41.91 23.48 43.22 21.28Q44.54 19.08 46.82 17.86Q49.10 16.64 51.95 16.64L51.95 16.64Q54.49 16.64 56.54 17.67Q58.60 18.70 59.85 20.63L59.85 20.63L59.85 16.80ZM52.21 33.63Q54.38 33.63 56.13 32.70Q57.87 31.77 58.84 30.10Q59.81 28.42 59.81 26.30L59.81 26.30Q59.81 24.17 58.84 22.52Q57.87 20.86 56.14 19.93Q54.42 19 52.21 19L52.21 19Q50.05 19 48.32 19.91Q46.59 20.82 45.62 22.50Q44.65 24.17 44.65 26.30L44.65 26.30Q44.65 28.42 45.62 30.10Q46.59 31.77 48.32 32.70Q50.05 33.63 52.21 33.63L52.21 33.63ZM78.17 36.97Q75.28 36.97 72.96 35.66Q70.64 34.35 69.31 32.03Q67.98 29.72 67.98 26.79L67.98 26.79Q67.98 23.86 69.31 21.55Q70.64 19.23 72.96 17.94Q75.28 16.64 78.17 16.64L78.17 16.64Q81.05 16.64 83.37 17.94Q85.69 19.23 87.00 21.55Q88.31 23.86 88.31 26.79L88.31 26.79Q88.31 29.72 87.00 32.03Q85.69 34.35 83.37 35.66Q81.05 36.97 78.17 36.97L78.17 36.97ZM78.17 34.58Q80.29 34.58 81.98 33.61Q83.68 32.64 84.63 30.86Q85.58 29.07 85.58 26.79L85.58 26.79Q85.58 24.51 84.63 22.72Q83.68 20.94 81.98 19.97Q80.29 19 78.17 19L78.17 19Q76.04 19 74.35 19.97Q72.66 20.94 71.69 22.72Q70.72 24.51 70.72 26.79L70.72 26.79Q70.72 29.07 71.69 30.86Q72.66 32.64 74.35 33.61Q76.04 34.58 78.17 34.58L78.17 34.58ZM100.17 21.58Q104.35 21.81 106.53 23.84Q108.72 25.88 108.72 29.15L108.72 29.15Q108.72 31.43 107.62 33.19Q106.51 34.96 104.35 35.99Q102.18 37.01 99.07 37.01L99.07 37.01Q96.18 37.01 93.61 36.08Q91.05 35.15 89.49 33.59L89.49 33.59L90.82 31.43Q92.15 32.79 94.35 33.65Q96.56 34.50 99.07 34.50L99.07 34.50Q102.33 34.50 104.12 33.08Q105.91 31.65 105.91 29.15L105.91 29.15Q105.91 26.68 104.12 25.27Q102.33 23.86 98.72 23.86L98.72 23.86L96.82 23.86L96.82 21.85L104.20 12.62L90.59 12.62L90.59 10.18L107.69 10.18L107.69 12.12L100.17 21.58ZM129.88 8.59L132.58 8.59L132.58 36.78L130.00 36.78L130.00 32.83Q128.78 34.85 126.79 35.91Q124.79 36.97 122.28 36.97L122.28 36.97Q119.47 36.97 117.19 35.68Q114.91 34.39 113.62 32.07Q112.33 29.75 112.33 26.79L112.33 26.79Q112.33 23.83 113.62 21.51Q114.91 19.19 117.19 17.92Q119.47 16.64 122.28 16.64L122.28 16.64Q124.72 16.64 126.67 17.65Q128.63 18.66 129.88 20.60L129.88 20.60L129.88 8.59ZM122.51 34.58Q124.60 34.58 126.29 33.61Q127.98 32.64 128.95 30.86Q129.92 29.07 129.92 26.79L129.92 26.79Q129.92 24.51 128.95 22.72Q127.98 20.94 126.29 19.97Q124.60 19 122.51 19L122.51 19Q120.38 19 118.69 19.97Q117.00 20.94 116.03 22.72Q115.06 24.51 115.06 26.79L115.06 26.79Q115.06 29.07 116.03 30.86Q117.00 32.64 118.69 33.61Q120.38 34.58 122.51 34.58L122.51 34.58Z" transform="translate(0, 0)"/>
      </g>
    </svg>
  </g>
  <ellipse style="stroke: rgb(0, 0, 0); fill: none; stroke-width: 2px;" cx="114.764" cy="83.314" rx="90.768" ry="90.768"/>
</svg>